# xmcd
#
# Track frame offsets:
#	150
#	9561
#	20559
#	30204
#	40072
#	50904
#	60360
#	71096
#	80844
#	91276
#	102227
#	111807
#	122345
#	132399
#	141289
#	149552
#	158897
#	168879
#	178851
#	188711
#	198365
#	209626
#	217345
#	225428
#	234330
#	244110
#	253378
#	263189
#	273445
#	286818
#	299000
#	310680
#	323169
#	334395
#	345323
#
# Disc length: 4743 seconds
#
# Revision: 1
# Processed by: cddbd v1.5.2PL0 Copyright (c) Steve Scherf et al.
# Submitted via: EasyCDDAExtractor 10.0.2.1
#
DISCID=16128523
DTITLE=Charlie Walker - Pick Me Up On Your Way Down - CD3
DYEAR=1999
DGENRE=Country
TTITLE0=Honky Tonk Song
TTITLE1=The Band Keeps Playing On
TTITLE2=Every Good Reason
TTITLE3=Shoes Of A Fool
TTITLE4=Walking The Floor Over You
TTITLE5=Foggy River
TTITLE6=Born To Lose
TTITLE7=You're Still On My Mind
TTITLE8=My Shoes Keep Walking Back To You
TTITLE9=I'll Go Down Swinging
TTITLE10=Drivin' Nails In My Coffin
TTITLE11=Gonna Buy Me A Jukebox
TTITLE12=I Can Take Anything
TTITLE13=I'd Rather Switch Than Fight
TTITLE14=Fast Way Of Livin'
TTITLE15=Hello Bill
TTITLE16=Bubbles In My Beer
TTITLE17=Crazy Arms
TTITLE18=Little Old Heartache Maker Me
TTITLE19=Wild As A Wildcat
TTITLE20=Out Of A Honky Tonk
TTITLE21=Try Me One More Time
TTITLE22=The Man In The Little White Suit
TTITLE23=Memory Killer
TTITLE24=He's A Jolly Good Fellow
TTITLE25=A Dozen More Like You
TTITLE26=Back In My Baby's Arms Again
TTITLE27=I'm Gonna Live (As Long As I Can)
TTITLE28=Little Ol' Winedrinker Me
TTITLE29=Think Of Me
TTITLE30=Daddy's Coming Home (Next Week)
TTITLE31=I'm Ashamed Of You
TTITLE32=I'm Gonna Hang Up My Gloves
TTITLE33=You Lied To Me
TTITLE34=The Town That Never Sleeps
EXTD=
EXTT0=
EXTT1=
EXTT2=
EXTT3=
EXTT4=
EXTT5=
EXTT6=
EXTT7=
EXTT8=
EXTT9=
EXTT10=
EXTT11=
EXTT12=
EXTT13=
EXTT14=
EXTT15=
EXTT16=
EXTT17=
EXTT18=
EXTT19=
EXTT20=
EXTT21=
EXTT22=
EXTT23=
EXTT24=
EXTT25=
EXTT26=
EXTT27=
EXTT28=
EXTT29=
EXTT30=
EXTT31=
EXTT32=
EXTT33=
EXTT34=
PLAYORDER=
